<svg width="20" height="20" viewBox="0 0 20 20" fill="none" xmlns="http://www.w3.org/2000/svg"><path fill-rule="evenodd" clip-rule="evenodd" d="M10 0C4.477 0 0 4.477 0 10s4.477 10 10 10 10-4.477 10-10S15.523 0 10 0zm4.167 6.562c.46.126.82.497.943.968.223.854.223 2.637.223 2.637s0 1.782-.223 2.636a1.354 1.354 0 0 1-.943.968C13.336 14 10 14 10 14s-3.336 0-4.167-.229a1.354 1.354 0 0 1-.943-.968c-.223-.854-.223-2.636-.223-2.636s0-1.783.223-2.637c.122-.47.484-.842.943-.968C6.664 6.333 10 6.333 10 6.333s3.336 0 4.167.23z" fill="#3A3B3C"/><path d="M9 12V8.667l2.667 1.667L9 12z" fill="#3A3B3C"/></svg>