<svg width="34" height="34" viewBox="0 0 34 34" fill="none" xmlns="http://www.w3.org/2000/svg"><path d="m25.275 22.183.249.251.252-.25a3.186 3.186 0 0 1 5.442 2.253 3.188 3.188 0 0 1-.934 2.254l-4.76 4.759-4.757-4.759a3.188 3.188 0 1 1 4.508-4.508zM17 19.833v2.834a8.5 8.5 0 0 0-8.5 8.5H5.667a11.333 11.333 0 0 1 10.979-11.328l.354-.006zm0-18.416c4.696 0 8.5 3.803 8.5 8.5a8.497 8.497 0 0 1-8.181 8.494l-.32.005a8.498 8.498 0 0 1-8.5-8.5 8.497 8.497 0 0 1 8.182-8.494L17 1.417zm0 2.833a5.665 5.665 0 0 0-5.667 5.666A5.665 5.665 0 0 0 17 15.583a5.665 5.665 0 0 0 5.666-5.667A5.665 5.665 0 0 0 17 4.25z" fill="#3A3B3C"/></svg>