<svg width="32" height="32" viewBox="0 0 32 32" fill="none" xmlns="http://www.w3.org/2000/svg"><path d="M29.333 22.67a8.003 8.003 0 0 1-6.284 7.813l-.85-2.553a5.338 5.338 0 0 0 3.754-2.597h-3.287A2.667 2.667 0 0 1 20 22.667v-5.334a2.667 2.667 0 0 1 2.666-2.666h3.918a10.668 10.668 0 0 0-21.168 0h3.917A2.667 2.667 0 0 1 12 17.332v5.334a2.666 2.666 0 0 1-2.667 2.666h-4a2.667 2.667 0 0 1-2.667-2.666V16C2.667 8.636 8.636 2.666 16 2.666S29.333 8.636 29.333 16v6.67zm-2.666-.004v-5.333h-4v5.334h4zM5.332 17.334v5.334h4v-5.334h-4z" fill="#3A3B3C"/></svg>