<svg width="20" height="20" viewBox="0 0 20 20" fill="none" xmlns="http://www.w3.org/2000/svg"><path fill-rule="evenodd" clip-rule="evenodd" d="M10 0C4.477 0 0 4.477 0 10s4.477 10 10 10 10-4.477 10-10S15.523 0 10 0zm-.279 8.474-.02-.346c-.063-.897.49-1.716 1.364-2.034.321-.113.867-.127 1.224-.028.14.043.405.184.594.31l.343.234.378-.12c.21-.064.49-.17.615-.24.119-.064.224-.1.224-.078 0 .12-.259.53-.476.756-.293.317-.21.346.385.134.357-.12.364-.12.294.014-.042.07-.259.318-.49.544-.392.388-.413.43-.413.755 0 .502-.237 1.547-.475 2.119-.44 1.073-1.385 2.182-2.33 2.74-1.328.784-3.098.981-4.588.522-.497-.155-1.35-.55-1.35-.621 0-.021.259-.05.574-.057a3.938 3.938 0 0 0 1.874-.522l.378-.226-.434-.148c-.615-.212-1.168-.7-1.308-1.159-.042-.148-.028-.155.364-.155l.406-.007-.343-.162c-.406-.205-.777-.551-.958-.904-.133-.254-.301-.897-.252-.947.014-.02.16.022.329.078.482.177.545.134.265-.162-.524-.537-.685-1.335-.433-2.09l.119-.34.461.46c.945.925 2.057 1.475 3.33 1.638l.35.042z" fill="#3A3B3C"/></svg>