<svg width="24" height="24" viewBox="0 0 24 24" fill="none" xmlns="http://www.w3.org/2000/svg">
<g opacity="0.62">
<path d="M3.99984 6.41402L0.756836 3.17202L2.17184 1.75702L5.41384 5.00002H20.6558C20.8117 5.00001 20.9654 5.03643 21.1047 5.10639C21.244 5.17634 21.365 5.27788 21.4581 5.40292C21.5511 5.52795 21.6137 5.673 21.6407 5.82651C21.6678 5.98001 21.6586 6.13771 21.6138 6.28702L19.2138 14.287C19.1521 14.4931 19.0255 14.6738 18.853 14.8022C18.6804 14.9307 18.471 15 18.2558 15H5.99984V17H16.9998V19H4.99984C4.73462 19 4.48027 18.8947 4.29273 18.7071C4.10519 18.5196 3.99984 18.2652 3.99984 18V6.41402ZM5.99984 7.00002V13H17.5118L19.3118 7.00002H5.99984ZM5.49984 23C5.10201 23 4.72048 22.842 4.43918 22.5607C4.15787 22.2794 3.99984 21.8978 3.99984 21.5C3.99984 21.1022 4.15787 20.7207 4.43918 20.4394C4.72048 20.1581 5.10201 20 5.49984 20C5.89766 20 6.27919 20.1581 6.5605 20.4394C6.8418 20.7207 6.99984 21.1022 6.99984 21.5C6.99984 21.8978 6.8418 22.2794 6.5605 22.5607C6.27919 22.842 5.89766 23 5.49984 23ZM17.4998 23C17.102 23 16.7205 22.842 16.4392 22.5607C16.1579 22.2794 15.9998 21.8978 15.9998 21.5C15.9998 21.1022 16.1579 20.7207 16.4392 20.4394C16.7205 20.1581 17.102 20 17.4998 20C17.8977 20 18.2792 20.1581 18.5605 20.4394C18.8418 20.7207 18.9998 21.1022 18.9998 21.5C18.9998 21.8978 18.8418 22.2794 18.5605 22.5607C18.2792 22.842 17.8977 23 17.4998 23Z" fill="#3A3B3C"/>
</g>
</svg>
