<svg width="72" height="72" viewBox="0 0 72 72" fill="none" xmlns="http://www.w3.org/2000/svg">
<path d="M66 60.021C65.9945 60.8089 65.6793 61.5629 65.1225 62.1203C64.5656 62.6777 63.8119 62.9937 63.024 63H8.976C8.18644 62.9992 7.42949 62.685 6.87147 62.1264C6.31345 61.5678 6 60.8106 6 60.021V57H60V21.9L36 43.5L6 16.5V12C6 11.2044 6.31607 10.4413 6.87868 9.87868C7.44129 9.31607 8.20435 9 9 9H63C63.7957 9 64.5587 9.31607 65.1213 9.87868C65.6839 10.4413 66 11.2044 66 12V60.021ZM13.302 15L36 35.43L58.698 15H13.302ZM0 45H24V51H0V45ZM0 30H15V36H0V30Z" fill="#82807F"/>
<path d="M0 45H24V51H0V45Z" fill="#3A3B3C"/>
<rect y="30" width="15" height="6" fill="#3A3B3C"/>
</svg>
