<svg width="20" height="20" viewBox="0 0 20 20" fill="none" xmlns="http://www.w3.org/2000/svg">
<path fill-rule="evenodd" clip-rule="evenodd" d="M10 0C4.47715 0 0 4.47715 0 10C0 15.5228 4.47715 20 10 20C15.5228 20 20 15.5228 20 10C20 4.47715 15.5228 0 10 0ZM14.1673 6.56211C14.6263 6.68805 14.9878 7.05914 15.1104 7.53039C15.3333 8.38449 15.3333 10.1666 15.3333 10.1666C15.3333 10.1666 15.3333 11.9486 15.1104 12.8027C14.9878 13.274 14.6263 13.6451 14.1673 13.7711C13.3356 13.9999 10 13.9999 10 13.9999C10 13.9999 6.66442 13.9999 5.83261 13.7711C5.37364 13.6451 5.01218 13.274 4.88951 12.8027C4.66667 11.9486 4.66667 10.1666 4.66667 10.1666C4.66667 10.1666 4.66667 8.38449 4.88951 7.53039C5.01218 7.05914 5.37364 6.68805 5.83261 6.56211C6.66442 6.33322 10 6.33322 10 6.33322C10 6.33322 13.3356 6.33322 14.1673 6.56211Z" fill="#3A3B3C"/>
<path d="M9 12.0003V8.66699L11.6667 10.3337L9 12.0003Z" fill="#3A3B3C"/>
</svg>
