<svg width="20" height="20" viewBox="0 0 20 20" fill="none" xmlns="http://www.w3.org/2000/svg">
<path fill-rule="evenodd" clip-rule="evenodd" d="M10 0C4.47715 0 0 4.47715 0 10C0 15.5228 4.47715 20 10 20C15.5228 20 20 15.5228 20 10C20 4.47715 15.5228 0 10 0ZM7.80137 4.69878C8.37026 4.67289 8.55204 4.66655 10.0005 4.66655H9.99884C11.4477 4.66655 11.6289 4.67289 12.1977 4.69878C12.7655 4.72478 13.1533 4.81467 13.4933 4.94656C13.8444 5.08267 14.1411 5.26489 14.4378 5.56156C14.7344 5.85801 14.9167 6.15557 15.0533 6.50635C15.1844 6.84546 15.2744 7.23302 15.3011 7.80081C15.3267 8.3697 15.3333 8.55148 15.3333 9.99994C15.3333 11.4484 15.3267 11.6297 15.3011 12.1986C15.2744 12.7662 15.1844 13.1539 15.0533 13.4931C14.9167 13.8438 14.7344 14.1413 14.4378 14.4378C14.1414 14.7344 13.8443 14.9171 13.4937 15.0533C13.1543 15.1852 12.7663 15.2751 12.1985 15.3011C11.6296 15.327 11.4484 15.3333 9.99984 15.3333C8.55149 15.3333 8.36982 15.327 7.80092 15.3011C7.23325 15.2751 6.84558 15.1852 6.50624 15.0533C6.15568 14.9171 5.85813 14.7344 5.56179 14.4378C5.26523 14.1413 5.08301 13.8438 4.94667 13.493C4.81489 13.1539 4.725 12.7663 4.69889 12.1985C4.67311 11.6296 4.66667 11.4484 4.66667 9.99994C4.66667 8.55148 4.67334 8.36959 4.69878 7.8007C4.72434 7.23314 4.81434 6.84546 4.94656 6.50624C5.08323 6.15557 5.26545 5.85801 5.56212 5.56156C5.85857 5.265 6.15613 5.08278 6.50691 4.94656C6.84602 4.81467 7.23358 4.72478 7.80137 4.69878Z" fill="#3A3B3C"/>
<path fill-rule="evenodd" clip-rule="evenodd" d="M9.52224 5.6278C9.61514 5.62765 9.71508 5.6277 9.82293 5.62775L10.0007 5.6278C11.4247 5.6278 11.5935 5.63291 12.1558 5.65847C12.6758 5.68224 12.9581 5.76913 13.1461 5.84213C13.3949 5.9388 13.5724 6.05436 13.7589 6.24103C13.9456 6.4277 14.0612 6.60548 14.1581 6.85437C14.2311 7.04215 14.3181 7.32437 14.3417 7.84438C14.3673 8.4066 14.3728 8.5755 14.3728 9.99884C14.3728 11.4222 14.3673 11.5911 14.3417 12.1533C14.318 12.6733 14.2311 12.9555 14.1581 13.1433C14.0614 13.3922 13.9456 13.5694 13.7589 13.756C13.5723 13.9427 13.3951 14.0582 13.1461 14.1549C12.9583 14.2282 12.6758 14.3149 12.1558 14.3387C11.5936 14.3642 11.4247 14.3698 10.0007 14.3698C8.57656 14.3698 8.40778 14.3642 7.84555 14.3387C7.32555 14.3147 7.04332 14.2278 6.85521 14.1548C6.60632 14.0581 6.42854 13.9426 6.24187 13.7559C6.0552 13.5692 5.93964 13.3919 5.84275 13.1429C5.76975 12.9551 5.68275 12.6729 5.65908 12.1529C5.63353 11.5906 5.62842 11.4217 5.62842 9.99751C5.62842 8.57327 5.63353 8.40527 5.65908 7.84304C5.68286 7.32304 5.76975 7.04081 5.84275 6.85281C5.93942 6.60392 6.0552 6.42614 6.24187 6.23947C6.42854 6.0528 6.60632 5.93725 6.85521 5.84036C7.04321 5.76702 7.32555 5.68035 7.84555 5.65647C8.33756 5.63424 8.52823 5.62758 9.52224 5.62646V5.6278ZM12.8476 6.51342C12.4943 6.51342 12.2076 6.79975 12.2076 7.1532C12.2076 7.50654 12.4943 7.79321 12.8476 7.79321C13.2009 7.79321 13.4876 7.50654 13.4876 7.1532C13.4876 6.79986 13.2009 6.5132 12.8476 6.5132V6.51342ZM7.26177 10C7.26177 8.48747 8.48805 7.26115 10.0006 7.26109C11.5131 7.26109 12.7392 8.48744 12.7392 10C12.7392 11.5126 11.5133 12.7384 10.0007 12.7384C8.48811 12.7384 7.26177 11.5126 7.26177 10Z" fill="#3A3B3C"/>
<path d="M10.0005 8.22217C10.9822 8.22217 11.7783 9.01807 11.7783 9.99996C11.7783 10.9818 10.9822 11.7778 10.0005 11.7778C9.01855 11.7778 8.22266 10.9818 8.22266 9.99996C8.22266 9.01807 9.01855 8.22217 10.0005 8.22217Z" fill="#3A3B3C"/>
</svg>
