<svg width="34" height="34" viewBox="0 0 34 34" fill="none" xmlns="http://www.w3.org/2000/svg">
<path d="M9.91667 11.3332V8.49984C9.91667 6.62122 10.6629 4.81955 11.9913 3.49116C13.3197 2.16278 15.1214 1.4165 17 1.4165C18.8786 1.4165 20.6803 2.16278 22.0087 3.49116C23.3371 4.81955 24.0833 6.62122 24.0833 8.49984V11.3332H28.3333C28.7091 11.3332 29.0694 11.4824 29.3351 11.7481C29.6007 12.0138 29.75 12.3741 29.75 12.7498V29.7498C29.75 30.1256 29.6007 30.4859 29.3351 30.7516C29.0694 31.0173 28.7091 31.1665 28.3333 31.1665H5.66667C5.29094 31.1665 4.93061 31.0173 4.66493 30.7516C4.39926 30.4859 4.25 30.1256 4.25 29.7498V12.7498C4.25 12.3741 4.39926 12.0138 4.66493 11.7481C4.93061 11.4824 5.29094 11.3332 5.66667 11.3332H9.91667ZM9.91667 14.1665H7.08333V28.3332H26.9167V14.1665H24.0833V16.9998H21.25V14.1665H12.75V16.9998H9.91667V14.1665ZM12.75 11.3332H21.25V8.49984C21.25 7.37267 20.8022 6.29166 20.0052 5.49463C19.2082 4.6976 18.1272 4.24984 17 4.24984C15.8728 4.24984 14.7918 4.6976 13.9948 5.49463C13.1978 6.29166 12.75 7.37267 12.75 8.49984V11.3332Z" fill="#3A3B3C"/>
</svg>
