<svg width="34" height="34" viewBox="0 0 34 34" fill="none" xmlns="http://www.w3.org/2000/svg">
<path d="M25.2746 22.1834L25.5239 22.4342L25.7761 22.1834C26.0721 21.8874 26.4235 21.6526 26.8102 21.4925C27.1969 21.3323 27.6114 21.2498 28.03 21.2498C28.4486 21.2498 28.8631 21.3323 29.2498 21.4925C29.6365 21.6526 29.9879 21.8874 30.2839 22.1834C30.5799 22.4794 30.8147 22.8308 30.9749 23.2175C31.1351 23.6043 31.2175 24.0187 31.2175 24.4373C31.2175 24.8559 31.1351 25.2704 30.9749 25.6572C30.8147 26.0439 30.5799 26.3953 30.2839 26.6913L25.5239 31.4498L20.7668 26.6913C20.169 26.0935 19.8331 25.2827 19.8331 24.4373C19.8331 23.592 20.169 22.7812 20.7668 22.1834C21.3645 21.5856 22.1753 21.2498 23.0207 21.2498C23.8661 21.2498 24.6768 21.5856 25.2746 22.1834ZM16.9998 19.8332V22.6665C14.7455 22.6665 12.5835 23.562 10.9894 25.1561C9.39537 26.7502 8.49984 28.9122 8.49984 31.1665H5.6665C5.66654 28.2221 6.8125 25.3932 8.86175 23.2789C10.911 21.1646 13.7027 19.9309 16.6457 19.8388L16.9998 19.8332ZM16.9998 1.4165C21.6961 1.4165 25.4998 5.22025 25.4998 9.9165C25.5006 12.1159 24.6486 14.23 23.1228 15.8141C21.597 17.3982 19.5165 18.3291 17.3186 18.4108L16.9998 18.4165C12.3036 18.4165 8.49984 14.6128 8.49984 9.9165C8.49905 7.71709 9.35112 5.60305 10.8769 4.0189C12.4026 2.43476 14.4832 1.50394 16.6811 1.42217L16.9998 1.4165ZM16.9998 4.24984C13.869 4.24984 11.3332 6.78567 11.3332 9.9165C11.3332 13.0473 13.869 15.5832 16.9998 15.5832C20.1307 15.5832 22.6665 13.0473 22.6665 9.9165C22.6665 6.78567 20.1307 4.24984 16.9998 4.24984Z" fill="#3A3B3C"/>
</svg>
