<svg width="20" height="20" viewBox="0 0 20 20" fill="none" xmlns="http://www.w3.org/2000/svg">
<path fill-rule="evenodd" clip-rule="evenodd" d="M10 0C4.47715 0 0 4.47715 0 10C0 15.5228 4.47715 20 10 20C15.5228 20 20 15.5228 20 10C20 4.47715 15.5228 0 10 0ZM9.72148 8.4742L9.7005 8.12818C9.63755 7.23135 10.1901 6.41219 11.0645 6.09442C11.3862 5.98143 11.9318 5.96731 12.2886 6.06617C12.4285 6.10854 12.6943 6.24977 12.8831 6.37688L13.2259 6.60992L13.6036 6.48987C13.8134 6.42632 14.0932 6.32039 14.2191 6.24977C14.338 6.18622 14.443 6.15091 14.443 6.17209C14.443 6.29214 14.1842 6.70172 13.9673 6.9277C13.6735 7.24547 13.7575 7.27372 14.352 7.06187C14.7088 6.94182 14.7158 6.94182 14.6458 7.07599C14.6038 7.14661 14.387 7.39377 14.1562 7.61974C13.7645 8.00813 13.7435 8.0505 13.7435 8.37534C13.7435 8.87672 13.5057 9.92185 13.2678 10.4938C12.8272 11.5672 11.8829 12.6759 10.9386 13.2338C9.60957 14.0176 7.83989 14.2154 6.34999 13.7563C5.85336 13.601 5 13.2055 5 13.1349C5 13.1137 5.25881 13.0855 5.57357 13.0784C6.23108 13.0643 6.88859 12.8807 7.44818 12.5559L7.8259 12.3299L7.39222 12.1816C6.77668 11.9697 6.22409 11.4825 6.08419 11.0235C6.04222 10.8752 6.05621 10.8681 6.44792 10.8681L6.85362 10.8611L6.51087 10.6986C6.10518 10.4938 5.73445 10.1478 5.55259 9.79474C5.41969 9.54052 5.25181 8.89791 5.30078 8.84847C5.31477 8.82729 5.46166 8.86966 5.62953 8.92615C6.11217 9.10269 6.17513 9.06032 5.89533 8.76373C5.37072 8.22705 5.20984 7.42907 5.46166 6.67347L5.58057 6.33451L6.04222 6.79352C6.98652 7.7186 8.09869 8.26941 9.37175 8.43183L9.72148 8.4742Z" fill="#3A3B3C"/>
</svg>
