<svg width="32" height="32" viewBox="0 0 32 32" fill="none" xmlns="http://www.w3.org/2000/svg">
<path d="M29.3332 22.6692C29.3326 24.4926 28.7093 26.2611 27.5665 27.682C26.4238 29.1029 24.83 30.0909 23.0492 30.4825L22.1985 27.9305C22.9775 27.8022 23.7183 27.5027 24.3676 27.0536C25.0168 26.6044 25.5584 26.0168 25.9532 25.3332H22.6665C21.9593 25.3332 21.281 25.0522 20.7809 24.5521C20.2808 24.052 19.9998 23.3738 19.9998 22.6665V17.3332C19.9998 16.6259 20.2808 15.9477 20.7809 15.4476C21.281 14.9475 21.9593 14.6665 22.6665 14.6665H26.5838C26.2585 12.089 25.0037 9.71887 23.0551 8.00074C21.1064 6.28261 18.5978 5.33461 15.9998 5.33461C13.4019 5.33461 10.8933 6.28261 8.9446 8.00074C6.99594 9.71887 5.74121 12.089 5.41584 14.6665H9.33317C10.0404 14.6665 10.7187 14.9475 11.2188 15.4476C11.7189 15.9477 11.9998 16.6259 11.9998 17.3332V22.6665C11.9998 23.3738 11.7189 24.052 11.2188 24.5521C10.7187 25.0522 10.0404 25.3332 9.33317 25.3332H5.33317C4.62593 25.3332 3.94765 25.0522 3.44755 24.5521C2.94746 24.052 2.6665 23.3738 2.6665 22.6665V15.9998C2.6665 8.63584 8.63584 2.6665 15.9998 2.6665C23.3638 2.6665 29.3332 8.63584 29.3332 15.9998V22.6692ZM26.6665 22.6665V17.3332H22.6665V22.6665H26.6665ZM5.33317 17.3332V22.6665H9.33317V17.3332H5.33317Z" fill="#3A3B3C"/>
</svg>
