<svg width="22" height="22" viewBox="0 0 22 22" fill="none" xmlns="http://www.w3.org/2000/svg">
<path d="M3.6665 20.1667C3.6665 18.2217 4.43912 16.3565 5.81439 14.9812C7.18965 13.6059 9.05492 12.8333 10.9998 12.8333C12.9448 12.8333 14.81 13.6059 16.1853 14.9812C17.5606 16.3565 18.3332 18.2217 18.3332 20.1667H16.4998C16.4998 18.708 15.9204 17.309 14.8889 16.2776C13.8575 15.2461 12.4585 14.6667 10.9998 14.6667C9.54115 14.6667 8.1422 15.2461 7.11075 16.2776C6.0793 17.309 5.49984 18.708 5.49984 20.1667H3.6665ZM10.9998 11.9167C7.96109 11.9167 5.49984 9.45541 5.49984 6.41666C5.49984 3.37791 7.96109 0.916656 10.9998 0.916656C14.0386 0.916656 16.4998 3.37791 16.4998 6.41666C16.4998 9.45541 14.0386 11.9167 10.9998 11.9167ZM10.9998 10.0833C13.0257 10.0833 14.6665 8.44249 14.6665 6.41666C14.6665 4.39082 13.0257 2.74999 10.9998 2.74999C8.974 2.74999 7.33317 4.39082 7.33317 6.41666C7.33317 8.44249 8.974 10.0833 10.9998 10.0833Z" fill="#3A3B3C"/>
</svg>
