<svg width="22" height="22" viewBox="0 0 22 22" fill="none" xmlns="http://www.w3.org/2000/svg">
<path d="M3.66663 20.1667C3.66663 18.2217 4.43924 16.3565 5.81451 14.9812C7.18978 13.6059 9.05504 12.8333 11 12.8333C12.9449 12.8333 14.8101 13.6059 16.1854 14.9812C17.5607 16.3565 18.3333 18.2217 18.3333 20.1667H16.5C16.5 18.708 15.9205 17.309 14.889 16.2776C13.8576 15.2461 12.4586 14.6667 11 14.6667C9.54127 14.6667 8.14232 15.2461 7.11087 16.2776C6.07942 17.309 5.49996 18.708 5.49996 20.1667H3.66663ZM11 11.9167C7.96121 11.9167 5.49996 9.45541 5.49996 6.41666C5.49996 3.37791 7.96121 0.916656 11 0.916656C14.0387 0.916656 16.5 3.37791 16.5 6.41666C16.5 9.45541 14.0387 11.9167 11 11.9167ZM11 10.0833C13.0258 10.0833 14.6666 8.44249 14.6666 6.41666C14.6666 4.39082 13.0258 2.74999 11 2.74999C8.97413 2.74999 7.33329 4.39082 7.33329 6.41666C7.33329 8.44249 8.97413 10.0833 11 10.0833Z" fill="#01A6AE"/>
</svg>
