<svg width="118" height="118" viewBox="0 0 118 118" fill="none" xmlns="http://www.w3.org/2000/svg">
<circle cx="59" cy="59" r="59" fill="white" fill-opacity="0.26"/>
<circle cx="59" cy="59" r="41.6848" fill="white" fill-opacity="0.62"/>
<path d="M65.2248 59L56.1666 52.9607V65.0392L65.2248 59ZM69.4493 59.5893L54.4341 69.5995C54.3274 69.6705 54.2035 69.7112 54.0755 69.7173C53.9475 69.7234 53.8203 69.6947 53.7073 69.6343C53.5944 69.5738 53.4999 69.4838 53.4341 69.3739C53.3682 69.264 53.3334 69.1383 53.3333 69.0102V48.9898C53.3334 48.8617 53.3682 48.736 53.4341 48.6261C53.4999 48.5162 53.5944 48.4262 53.7073 48.3657C53.8203 48.3053 53.9475 48.2765 54.0755 48.2827C54.2035 48.2888 54.3274 48.3295 54.4341 48.4005L69.4493 58.4107C69.5463 58.4753 69.6259 58.563 69.6809 58.6658C69.7359 58.7686 69.7647 58.8834 69.7647 59C69.7647 59.1166 69.7359 59.2314 69.6809 59.3342C69.6259 59.437 69.5463 59.5246 69.4493 59.5893Z" fill="#01A6AE"/>
</svg>
