<svg width="118" height="118" viewBox="0 0 118 118" fill="none" xmlns="http://www.w3.org/2000/svg">
<circle opacity="0.26" cx="59" cy="59" r="59" fill="#3A3B3C"/>
<circle opacity="0.87" cx="59.0002" cy="59" r="41.6848" fill="#3A3B3C"/>
<path d="M65.225 59L56.1668 52.9607V65.0392L65.225 59ZM69.4495 59.5893L54.4342 69.5995C54.3276 69.6705 54.2037 69.7112 54.0757 69.7173C53.9477 69.7234 53.8205 69.6947 53.7075 69.6343C53.5945 69.5738 53.5001 69.4838 53.4342 69.3739C53.3684 69.264 53.3336 69.1383 53.3335 69.0102V48.9898C53.3336 48.8617 53.3684 48.736 53.4342 48.6261C53.5001 48.5162 53.5945 48.4262 53.7075 48.3657C53.8205 48.3053 53.9477 48.2765 54.0757 48.2827C54.2037 48.2888 54.3276 48.3295 54.4342 48.4005L69.4495 58.4107C69.5465 58.4753 69.6261 58.563 69.6811 58.6658C69.7361 58.7686 69.7649 58.8834 69.7649 59C69.7649 59.1166 69.7361 59.2314 69.6811 59.3342C69.6261 59.437 69.5465 59.5246 69.4495 59.5893Z" fill="#FFEB0D"/>
</svg>
