<svg width="21" height="21" viewBox="0 0 21 21" fill="none" xmlns="http://www.w3.org/2000/svg">
<path d="M16.0311 14.617L20.3141 18.899L18.8991 20.314L14.6171 16.031C13.0238 17.3082 11.042 18.0029 9.00004 18C4.03202 18 0 13.968 0 9C0 4.032 4.03202 0 9.00004 0C13.9681 0 18.0001 4.032 18.0001 9C18.003 11.042 17.3083 13.0237 16.0311 14.617ZM14.0251 13.875C15.2942 12.5699 16.0029 10.8204 16.0001 9C16.0001 5.132 12.8671 2 9.00004 2C5.13202 2 2.00001 5.132 2.00001 9C2.00001 12.867 5.13202 16 9.00004 16C10.8205 16.0029 12.5699 15.2941 13.8751 14.025L14.0251 13.875Z" fill="#3A3B3C"/>
</svg>
