<svg width="32" height="32" viewBox="0 0 32 32" fill="none" xmlns="http://www.w3.org/2000/svg">
<path d="M6.75763 21.9999H19.2576C19.4477 22 19.6306 22.0722 19.7694 22.2019C19.9083 22.3316 19.9927 22.5092 20.0057 22.6988C20.0186 22.8884 19.9591 23.0758 19.8392 23.2232C19.7193 23.3706 19.5479 23.467 19.3596 23.4929L19.2576 23.4999H6.75763C6.56625 23.5019 6.38137 23.4306 6.24084 23.3007C6.10032 23.1707 6.01478 22.992 6.00174 22.8011C5.98871 22.6101 6.04916 22.4214 6.17072 22.2736C6.29229 22.1258 6.46576 22.03 6.65563 22.0059L6.75763 21.9999H19.2576H6.75763ZM6.75763 15.4999H25.2576C25.4477 15.5 25.6306 15.5722 25.7694 15.7019C25.9083 15.8316 25.9927 16.0092 26.0057 16.1988C26.0186 16.3884 25.9591 16.5758 25.8392 16.7232C25.7193 16.8706 25.5479 16.967 25.3596 16.9929L25.2576 16.9999H6.75763C6.5676 16.9999 6.38469 16.9277 6.24584 16.798C6.10699 16.6682 6.02255 16.4906 6.0096 16.301C5.99665 16.1115 6.05614 15.924 6.17606 15.7766C6.29598 15.6292 6.46738 15.5328 6.65563 15.5069L6.75763 15.4999H25.2576H6.75763ZM6.75763 9.00293H22.2576C22.4477 9.00299 22.6306 9.07517 22.7694 9.2049C22.9083 9.33463 22.9927 9.51223 23.0057 9.70181C23.0186 9.89139 22.9591 10.0788 22.8392 10.2262C22.7193 10.3736 22.5479 10.47 22.3596 10.4959L22.2576 10.5029H6.75763C6.5676 10.5029 6.38469 10.4307 6.24584 10.301C6.10699 10.1712 6.02255 9.99363 6.0096 9.80405C5.99665 9.61447 6.05614 9.42704 6.17606 9.27963C6.29598 9.13222 6.46738 9.03583 6.65563 9.00993L6.75763 9.00293H22.2576H6.75763Z" fill="black"/>
</svg>
